<?xml version="1.0" encoding="utf-8"?>
<svg width="24" height="24" viewBox="0 0 24 24" fill="none" xmlns="http://www.w3.org/2000/svg">
  <path d="M 14.843 9.124 L 15.759 7.747 C 15.839 7.613 15.78 7.449 15.63 7.379 C 15.485 7.314 15.306 7.353 15.216 7.474 L 14.28 8.878 C 12.856 8.353 11.251 8.353 9.826 8.878 L 8.891 7.474 C 8.795 7.349 8.601 7.31 8.457 7.388 C 8.318 7.466 8.273 7.622 8.348 7.747 L 9.264 9.124 C 7.72 9.891 6.713 11.271 6.574 12.812 L 17.533 12.812 C 17.393 11.271 16.387 9.891 14.843 9.124 Z M 9.563 11.622 C 9.219 11.622 8.94 11.379 8.94 11.082 C 8.94 10.782 9.219 10.539 9.563 10.539 C 9.907 10.539 10.186 10.782 10.186 11.082 C 10.186 11.379 9.907 11.622 9.563 11.622 Z M 14.544 11.622 C 14.2 11.622 13.921 11.379 13.921 11.082 C 13.921 10.782 14.2 10.539 14.544 10.539 C 14.887 10.539 15.167 10.782 15.167 11.082 C 15.167 11.379 14.887 11.622 14.544 11.622 Z" fill="black" style="transform-box: fill-box; transform-origin: 50% 50%;"/>
  <path d="M 16.42 12.94 L 7.791 12.94 C 7.114 12.94 6.559 13.212 6.559 13.541 L 6.559 17.738 C 6.559 18.067 7.114 18.337 7.791 18.337 L 16.42 18.337 C 17.098 18.337 17.653 18.067 17.653 17.738 L 17.653 13.541 C 17.653 13.212 17.098 12.94 16.42 12.94 Z M 13.339 16.388 L 13.493 16.388 L 13.493 17.738 L 10.719 17.738 L 10.719 16.388 L 10.873 16.388 C 11.212 16.388 11.489 16.253 11.489 16.089 L 11.489 13.541 L 12.722 13.541 L 12.722 16.089 C 12.722 16.253 12.999 16.388 13.339 16.388 Z M 7.791 13.541 L 9.024 13.541 L 9.024 16.089 C 9.024 16.253 9.302 16.388 9.641 16.388 L 9.795 16.388 L 9.795 17.738 L 7.791 17.738 L 7.791 13.541 Z M 16.42 17.738 L 14.417 17.738 L 14.417 16.388 L 14.571 16.388 C 14.91 16.388 15.187 16.253 15.187 16.089 L 15.187 13.541 L 16.42 13.541 L 16.42 17.738 Z" fill="black" style="transform-box: fill-box; transform-origin: 50% 50%;"/>
  <path d="M 12.196 10.436 C 11.418 10.68 10.353 9.777 9.819 8.417 C 9.285 7.057 9.483 5.758 10.262 5.512 C 11.04 5.268 12.105 6.173 12.638 7.532 C 13.172 8.891 12.974 10.192 12.196 10.436 Z" style="fill: rgb(216, 216, 216); fill-opacity: 0; transform-origin: 6.956px 4.884px;"/>
  <path d="M 12.18 10.671 C 11.698 10.822 11.059 10.601 10.585 10.196 C 10.123 9.804 9.676 9.172 9.396 8.458 C 9.115 7.744 9.022 7.002 9.107 6.437 C 9.196 5.856 9.538 5.328 10.021 5.176 C 10.502 5.025 11.141 5.246 11.616 5.651 C 12.078 6.042 12.523 6.675 12.805 7.389 C 13.086 8.102 13.179 8.845 13.093 9.409 C 13.004 9.99 12.661 10.519 12.18 10.671 Z M 12.469 9.294 C 12.543 8.806 12.469 8.22 12.215 7.573 C 11.962 6.927 11.609 6.429 11.211 6.09 C 10.826 5.762 10.543 5.654 10.245 5.747 C 9.948 5.84 9.803 6.083 9.732 6.553 C 9.659 7.041 9.731 7.627 9.985 8.273 C 10.239 8.919 10.592 9.418 10.99 9.757 C 11.375 10.085 11.658 10.193 11.955 10.1 C 12.253 10.006 12.398 9.764 12.469 9.294 Z" style="fill: rgb(0, 0, 0); transform-box: fill-box; transform-origin: 50% 50%;"/>
  <ellipse style="fill: rgb(216, 216, 216); fill-opacity: 0; transform-origin: 7.652px 5.073px;" cx="7.652" cy="5.073" rx="2.826" ry="1.469" transform="matrix(-0.277947, 0.960596, -0.978752, -0.2152, 5.17742, 3.049932)"/>
  <path d="M 11.916 11.128 C 11.42 11.018 11.036 10.492 10.906 9.889 C 10.781 9.306 10.82 8.518 11.046 7.734 C 11.273 6.951 11.667 6.242 12.097 5.779 C 12.538 5.303 13.161 4.999 13.658 5.108 C 14.153 5.217 14.536 5.743 14.665 6.346 C 14.792 6.93 14.753 7.718 14.526 8.501 C 14.3 9.283 13.906 9.993 13.477 10.454 C 13.034 10.932 12.411 11.236 11.916 11.128 Z M 13.02 10.067 C 13.396 9.66 13.716 9.083 13.923 8.367 C 14.13 7.651 14.162 7.011 14.052 6.498 C 13.945 6.004 13.785 5.763 13.486 5.697 C 13.188 5.633 12.916 5.778 12.553 6.169 C 12.176 6.574 11.856 7.151 11.649 7.868 C 11.442 8.584 11.41 9.224 11.52 9.736 C 11.627 10.23 11.788 10.471 12.086 10.538 C 12.384 10.603 12.657 10.457 13.02 10.067 Z" style="fill: rgb(0, 0, 0); transform-box: fill-box; transform-origin: 50% 50%;"/>
</svg>